/* XPM */
static char * soldier_down_xpm[] = {
"20 20 19 1",
" 	c #4E6338",
".	c #000000",
"+	c #D80000",
"@	c #770000",
"#	c #46000A",
"$	c #1E1E1E",
"%	c #363636",
"&	c #4D4C4B",
"*	c #7D7B76",
"=	c #A29E96",
"-	c #BEBBB5",
";	c #E8E8E8",
">	c #040404",
",	c #F7D099",
"'	c #AA5A33",
")	c #F6A954",
"!	c #84482A",
"~	c #D97F40",
"{	c #3F3013",
"         ..         ",
"        .++.        ",
"       .@++@.       ",
"       .@@@@.       ",
"       .#@@#.       ",
"      .$$##$$.      ",
"     .$%&**&%$.     ",
"    .$%&&==&&%$.    ",
"    .**%&**&%**.    ",
"    .&*==--==*&.    ",
"    .$==----==$.    ",
"     .$;>,,>;$.     ",
"     .&;>,,>;&.     ",
"     >%'))))'%>     ",
"    >***!!!!***>    ",
"   >))>&****&>))>   ",
"   >)~>&&&&&&>~)>   ",
"    >>>%&&&&%>>>    ",
"      >{{>>{{>      ",
"                    "};
